<svg width="640" height="400" viewBox="0 0 640 400" fill="none" xmlns="http://www.w3.org/2000/svg">
<defs>
<linearGradient id="bg9" x1="0" y1="0" x2="640" y2="400" gradientUnits="userSpaceOnUse">
<stop stop-color="#3a465c"/><stop offset="1" stop-color="#566581"/>
</linearGradient>
<radialGradient id="glow9" cx="0.32" cy="0.26" r="0.9">
<stop stop-color="#ffffff" stop-opacity="0.22"/><stop offset="1" stop-color="#ffffff" stop-opacity="0"/>
</radialGradient>
<linearGradient id="vign9" x1="0" y1="0" x2="0" y2="400" gradientUnits="userSpaceOnUse">
<stop stop-color="#0a0f1f" stop-opacity="0.18"/><stop offset="0.42" stop-color="#0a0f1f" stop-opacity="0"/><stop offset="1" stop-color="#0a0f1f" stop-opacity="0.24"/>
</linearGradient>
<pattern id="dots9" width="26" height="26" patternUnits="userSpaceOnUse">
<circle cx="2" cy="2" r="1" fill="#ffffff" fill-opacity="0.08"/>
</pattern>
</defs>
<rect width="640" height="400" fill="url(#bg9)"/>
<rect width="640" height="400" fill="url(#dots9)"/>
<rect width="640" height="400" fill="url(#glow9)"/>
<g fill="none" stroke="#ffffff" stroke-width="3" stroke-linecap="round" stroke-linejoin="round">
<rect x="176" y="96" width="288" height="196" rx="12" fill="#ffffff" fill-opacity="0.10" stroke="#ffffff" stroke-opacity="0.5" stroke-width="2"/><line x1="176" y1="122" x2="464" y2="122" stroke="#ffffff" stroke-opacity="0.32" stroke-width="1.5"/><circle cx="192" cy="109" r="3.2" fill="#ffffff" fill-opacity="0.6" stroke="none"/><circle cx="203" cy="109" r="3.2" fill="#ffffff" fill-opacity="0.4" stroke="none"/><circle cx="214" cy="109" r="3.2" fill="#ffffff" fill-opacity="0.28" stroke="none"/><rect x="234" y="103" width="210" height="12" rx="6" fill="#ffffff" fill-opacity="0.13" stroke="none"/><path d="M286 150 v40 l-30 56 q-8 16 10 16 h84 q18 0 10 -16 l-30 -56 v-40" fill="#dbe3f2" fill-opacity="0.14" stroke="#ffffff" stroke-opacity="0.85" stroke-width="2.6"/><line x1="280" y1="150" x2="316" y2="150" stroke="#ffffff" stroke-opacity="0.8" stroke-width="3"/><path d="M268 226 q40 -12 76 0 v20 q-2 16 -10 16 h-56 q-8 0 -10 -16Z" fill="#dbe3f2" fill-opacity="0.3" stroke="none"/><circle cx="298" cy="236" r="3.4" fill="#ffffff" fill-opacity="0.8" stroke="none"/><circle cx="316" cy="246" r="2.6" fill="#ffffff" fill-opacity="0.7" stroke="none"/><circle cx="306" cy="216" r="2.4" fill="#ffffff" fill-opacity="0.6" stroke="none"/><rect x="364" y="150" width="64" height="22" rx="11" fill="#ffffff" fill-opacity="0.22" stroke="#ffffff" stroke-opacity="0.5" stroke-width="1.5"/><circle cx="414" cy="161" r="8" fill="#dbe3f2" fill-opacity="0.95" stroke="none"/><rect x="364" y="186" width="64" height="22" rx="11" fill="#ffffff" fill-opacity="0.1" stroke="#ffffff" stroke-opacity="0.5" stroke-width="1.5"/><circle cx="378" cy="197" r="8" fill="#ffffff" fill-opacity="0.95" stroke="none"/><rect x="364" y="222" width="64" height="22" rx="11" fill="#ffffff" fill-opacity="0.22" stroke="#ffffff" stroke-opacity="0.5" stroke-width="1.5"/><circle cx="414" cy="233" r="8" fill="#dbe3f2" fill-opacity="0.95" stroke="none"/>
</g>
<rect width="640" height="400" fill="url(#vign9)"/>
</svg>