<svg width="640" height="400" viewBox="0 0 640 400" fill="none" xmlns="http://www.w3.org/2000/svg">
<defs>
<linearGradient id="bg16" x1="0" y1="0" x2="640" y2="400" gradientUnits="userSpaceOnUse">
<stop stop-color="#3a465c"/><stop offset="1" stop-color="#566581"/>
</linearGradient>
<radialGradient id="glow16" cx="0.32" cy="0.26" r="0.9">
<stop stop-color="#ffffff" stop-opacity="0.22"/><stop offset="1" stop-color="#ffffff" stop-opacity="0"/>
</radialGradient>
<linearGradient id="vign16" x1="0" y1="0" x2="0" y2="400" gradientUnits="userSpaceOnUse">
<stop stop-color="#0a0f1f" stop-opacity="0.18"/><stop offset="0.42" stop-color="#0a0f1f" stop-opacity="0"/><stop offset="1" stop-color="#0a0f1f" stop-opacity="0.24"/>
</linearGradient>
<pattern id="dots16" width="26" height="26" patternUnits="userSpaceOnUse">
<circle cx="2" cy="2" r="1" fill="#ffffff" fill-opacity="0.08"/>
</pattern>
</defs>
<rect width="640" height="400" fill="url(#bg16)"/>
<rect width="640" height="400" fill="url(#dots16)"/>
<rect width="640" height="400" fill="url(#glow16)"/>
<g fill="none" stroke="#ffffff" stroke-width="3" stroke-linecap="round" stroke-linejoin="round">
<text x="186" y="234" font-family="Inter, sans-serif" font-size="150" font-weight="300" fill="#ffffff" fill-opacity="0.5" stroke="none">{</text><text x="430" y="234" font-family="Inter, sans-serif" font-size="150" font-weight="300" fill="#ffffff" fill-opacity="0.5" stroke="none">}</text><circle cx="234" cy="246" r="3.2" fill="#dbe3f2" fill-opacity="0.8" stroke="none"/><rect x="248" y="240" width="70" height="9" rx="4.5" fill="#ffffff" fill-opacity="0.6" stroke="none"/><circle cx="258" cy="268" r="3.2" fill="#dbe3f2" fill-opacity="0.8" stroke="none"/><rect x="272" y="262" width="110" height="9" rx="4.5" fill="#ffffff" fill-opacity="0.4" stroke="none"/><circle cx="258" cy="268" r="3.2" fill="#dbe3f2" fill-opacity="0.8" stroke="none"/><rect x="272" y="262" width="60" height="9" rx="4.5" fill="#ffffff" fill-opacity="0.7" stroke="none"/><circle cx="282" cy="290" r="3.2" fill="#dbe3f2" fill-opacity="0.8" stroke="none"/><rect x="296" y="284" width="90" height="9" rx="4.5" fill="#ffffff" fill-opacity="0.4" stroke="none"/><circle cx="282" cy="290" r="3.2" fill="#dbe3f2" fill-opacity="0.8" stroke="none"/><rect x="296" y="284" width="70" height="9" rx="4.5" fill="#ffffff" fill-opacity="0.55" stroke="none"/><circle cx="258" cy="312" r="3.2" fill="#dbe3f2" fill-opacity="0.8" stroke="none"/><rect x="272" y="306" width="130" height="9" rx="4.5" fill="#ffffff" fill-opacity="0.35" stroke="none"/><line x1="262" y1="244" x2="262" y2="312" stroke="#ffffff" stroke-opacity="0.18" stroke-width="1.4"/><path d="M418 108 L421.84 116.16 L430 120 L421.84 123.84 L418 132 L414.16 123.84 L406 120 L414.16 116.16Z" fill="#ffffff" fill-opacity="0.95" stroke="none"/><path d="M396 144 L397.92 148.08 L402 150 L397.92 151.92 L396 156 L394.08 151.92 L390 150 L394.08 148.08Z" fill="#ffffff" fill-opacity="0.7" stroke="none"/>
</g>
<rect width="640" height="400" fill="url(#vign16)"/>
</svg>