<svg width="640" height="400" viewBox="0 0 640 400" fill="none" xmlns="http://www.w3.org/2000/svg">
<defs>
<linearGradient id="bg5" x1="0" y1="0" x2="640" y2="400" gradientUnits="userSpaceOnUse">
<stop stop-color="#3a465c"/><stop offset="1" stop-color="#566581"/>
</linearGradient>
<radialGradient id="glow5" cx="0.32" cy="0.26" r="0.9">
<stop stop-color="#ffffff" stop-opacity="0.22"/><stop offset="1" stop-color="#ffffff" stop-opacity="0"/>
</radialGradient>
<linearGradient id="vign5" x1="0" y1="0" x2="0" y2="400" gradientUnits="userSpaceOnUse">
<stop stop-color="#0a0f1f" stop-opacity="0.18"/><stop offset="0.42" stop-color="#0a0f1f" stop-opacity="0"/><stop offset="1" stop-color="#0a0f1f" stop-opacity="0.24"/>
</linearGradient>
<pattern id="dots5" width="26" height="26" patternUnits="userSpaceOnUse">
<circle cx="2" cy="2" r="1" fill="#ffffff" fill-opacity="0.08"/>
</pattern>
</defs>
<rect width="640" height="400" fill="url(#bg5)"/>
<rect width="640" height="400" fill="url(#dots5)"/>
<rect width="640" height="400" fill="url(#glow5)"/>
<g fill="none" stroke="#ffffff" stroke-width="3" stroke-linecap="round" stroke-linejoin="round">
<rect x="196" y="118" width="248" height="164" rx="14" fill="#ffffff" fill-opacity="0.08" stroke="#ffffff" stroke-opacity="0.55" stroke-width="2.4"/><line x1="210" y1="110" x2="210" y2="118" stroke="#ffffff" stroke-opacity="0.4" stroke-width="2.2"/><line x1="210" y1="282" x2="210" y2="290" stroke="#ffffff" stroke-opacity="0.4" stroke-width="2.2"/><line x1="231" y1="110" x2="231" y2="118" stroke="#ffffff" stroke-opacity="0.4" stroke-width="2.2"/><line x1="231" y1="282" x2="231" y2="290" stroke="#ffffff" stroke-opacity="0.4" stroke-width="2.2"/><line x1="252" y1="110" x2="252" y2="118" stroke="#ffffff" stroke-opacity="0.4" stroke-width="2.2"/><line x1="252" y1="282" x2="252" y2="290" stroke="#ffffff" stroke-opacity="0.4" stroke-width="2.2"/><line x1="273" y1="110" x2="273" y2="118" stroke="#ffffff" stroke-opacity="0.4" stroke-width="2.2"/><line x1="273" y1="282" x2="273" y2="290" stroke="#ffffff" stroke-opacity="0.4" stroke-width="2.2"/><line x1="294" y1="110" x2="294" y2="118" stroke="#ffffff" stroke-opacity="0.4" stroke-width="2.2"/><line x1="294" y1="282" x2="294" y2="290" stroke="#ffffff" stroke-opacity="0.4" stroke-width="2.2"/><line x1="315" y1="110" x2="315" y2="118" stroke="#ffffff" stroke-opacity="0.4" stroke-width="2.2"/><line x1="315" y1="282" x2="315" y2="290" stroke="#ffffff" stroke-opacity="0.4" stroke-width="2.2"/><line x1="336" y1="110" x2="336" y2="118" stroke="#ffffff" stroke-opacity="0.4" stroke-width="2.2"/><line x1="336" y1="282" x2="336" y2="290" stroke="#ffffff" stroke-opacity="0.4" stroke-width="2.2"/><line x1="357" y1="110" x2="357" y2="118" stroke="#ffffff" stroke-opacity="0.4" stroke-width="2.2"/><line x1="357" y1="282" x2="357" y2="290" stroke="#ffffff" stroke-opacity="0.4" stroke-width="2.2"/><line x1="378" y1="110" x2="378" y2="118" stroke="#ffffff" stroke-opacity="0.4" stroke-width="2.2"/><line x1="378" y1="282" x2="378" y2="290" stroke="#ffffff" stroke-opacity="0.4" stroke-width="2.2"/><line x1="399" y1="110" x2="399" y2="118" stroke="#ffffff" stroke-opacity="0.4" stroke-width="2.2"/><line x1="399" y1="282" x2="399" y2="290" stroke="#ffffff" stroke-opacity="0.4" stroke-width="2.2"/><line x1="420" y1="110" x2="420" y2="118" stroke="#ffffff" stroke-opacity="0.4" stroke-width="2.2"/><line x1="420" y1="282" x2="420" y2="290" stroke="#ffffff" stroke-opacity="0.4" stroke-width="2.2"/><line x1="188" y1="132" x2="196" y2="132" stroke="#ffffff" stroke-opacity="0.4" stroke-width="2.2"/><line x1="444" y1="132" x2="452" y2="132" stroke="#ffffff" stroke-opacity="0.4" stroke-width="2.2"/><line x1="188" y1="153" x2="196" y2="153" stroke="#ffffff" stroke-opacity="0.4" stroke-width="2.2"/><line x1="444" y1="153" x2="452" y2="153" stroke="#ffffff" stroke-opacity="0.4" stroke-width="2.2"/><line x1="188" y1="174" x2="196" y2="174" stroke="#ffffff" stroke-opacity="0.4" stroke-width="2.2"/><line x1="444" y1="174" x2="452" y2="174" stroke="#ffffff" stroke-opacity="0.4" stroke-width="2.2"/><line x1="188" y1="195" x2="196" y2="195" stroke="#ffffff" stroke-opacity="0.4" stroke-width="2.2"/><line x1="444" y1="195" x2="452" y2="195" stroke="#ffffff" stroke-opacity="0.4" stroke-width="2.2"/><line x1="188" y1="216" x2="196" y2="216" stroke="#ffffff" stroke-opacity="0.4" stroke-width="2.2"/><line x1="444" y1="216" x2="452" y2="216" stroke="#ffffff" stroke-opacity="0.4" stroke-width="2.2"/><line x1="188" y1="237" x2="196" y2="237" stroke="#ffffff" stroke-opacity="0.4" stroke-width="2.2"/><line x1="444" y1="237" x2="452" y2="237" stroke="#ffffff" stroke-opacity="0.4" stroke-width="2.2"/><line x1="188" y1="258" x2="196" y2="258" stroke="#ffffff" stroke-opacity="0.4" stroke-width="2.2"/><line x1="444" y1="258" x2="452" y2="258" stroke="#ffffff" stroke-opacity="0.4" stroke-width="2.2"/><rect x="212" y="138" width="102" height="124" rx="8" fill="#ffffff" fill-opacity="0.10" stroke="#ffffff" stroke-opacity="0.7" stroke-width="2"/><rect x="224" y="150" width="20" height="18" rx="3" fill="#dbe3f2" fill-opacity="0.16" stroke="#ffffff" stroke-opacity="0.32" stroke-width="1.2"/><rect x="252" y="150" width="20" height="18" rx="3" fill="#dbe3f2" fill-opacity="0.16" stroke="#ffffff" stroke-opacity="0.32" stroke-width="1.2"/><rect x="280" y="150" width="20" height="18" rx="3" fill="#dbe3f2" fill-opacity="0.16" stroke="#ffffff" stroke-opacity="0.32" stroke-width="1.2"/><rect x="224" y="176" width="20" height="18" rx="3" fill="#dbe3f2" fill-opacity="0.16" stroke="#ffffff" stroke-opacity="0.32" stroke-width="1.2"/><rect x="252" y="176" width="20" height="18" rx="3" fill="#dbe3f2" fill-opacity="0.16" stroke="#ffffff" stroke-opacity="0.32" stroke-width="1.2"/><rect x="280" y="176" width="20" height="18" rx="3" fill="#dbe3f2" fill-opacity="0.16" stroke="#ffffff" stroke-opacity="0.32" stroke-width="1.2"/><rect x="224" y="202" width="20" height="18" rx="3" fill="#dbe3f2" fill-opacity="0.16" stroke="#ffffff" stroke-opacity="0.32" stroke-width="1.2"/><rect x="252" y="202" width="20" height="18" rx="3" fill="#dbe3f2" fill-opacity="0.16" stroke="#ffffff" stroke-opacity="0.32" stroke-width="1.2"/><rect x="280" y="202" width="20" height="18" rx="3" fill="#dbe3f2" fill-opacity="0.16" stroke="#ffffff" stroke-opacity="0.32" stroke-width="1.2"/><rect x="224" y="228" width="20" height="18" rx="3" fill="#dbe3f2" fill-opacity="0.16" stroke="#ffffff" stroke-opacity="0.32" stroke-width="1.2"/><rect x="252" y="228" width="20" height="18" rx="3" fill="#dbe3f2" fill-opacity="0.16" stroke="#ffffff" stroke-opacity="0.32" stroke-width="1.2"/><rect x="280" y="228" width="20" height="18" rx="3" fill="#dbe3f2" fill-opacity="0.16" stroke="#ffffff" stroke-opacity="0.32" stroke-width="1.2"/><rect x="326" y="138" width="102" height="124" rx="8" fill="#ffffff" fill-opacity="0.10" stroke="#ffffff" stroke-opacity="0.7" stroke-width="2"/><rect x="338" y="150" width="20" height="18" rx="3" fill="#dbe3f2" fill-opacity="0.16" stroke="#ffffff" stroke-opacity="0.32" stroke-width="1.2"/><rect x="366" y="150" width="20" height="18" rx="3" fill="#dbe3f2" fill-opacity="0.16" stroke="#ffffff" stroke-opacity="0.32" stroke-width="1.2"/><rect x="394" y="150" width="20" height="18" rx="3" fill="#dbe3f2" fill-opacity="0.16" stroke="#ffffff" stroke-opacity="0.32" stroke-width="1.2"/><rect x="338" y="176" width="20" height="18" rx="3" fill="#dbe3f2" fill-opacity="0.16" stroke="#ffffff" stroke-opacity="0.32" stroke-width="1.2"/><rect x="366" y="176" width="20" height="18" rx="3" fill="#dbe3f2" fill-opacity="0.16" stroke="#ffffff" stroke-opacity="0.32" stroke-width="1.2"/><rect x="394" y="176" width="20" height="18" rx="3" fill="#dbe3f2" fill-opacity="0.16" stroke="#ffffff" stroke-opacity="0.32" stroke-width="1.2"/><rect x="338" y="202" width="20" height="18" rx="3" fill="#dbe3f2" fill-opacity="0.16" stroke="#ffffff" stroke-opacity="0.32" stroke-width="1.2"/><rect x="366" y="202" width="20" height="18" rx="3" fill="#dbe3f2" fill-opacity="0.16" stroke="#ffffff" stroke-opacity="0.32" stroke-width="1.2"/><rect x="394" y="202" width="20" height="18" rx="3" fill="#dbe3f2" fill-opacity="0.16" stroke="#ffffff" stroke-opacity="0.32" stroke-width="1.2"/><rect x="338" y="228" width="20" height="18" rx="3" fill="#dbe3f2" fill-opacity="0.16" stroke="#ffffff" stroke-opacity="0.32" stroke-width="1.2"/><rect x="366" y="228" width="20" height="18" rx="3" fill="#dbe3f2" fill-opacity="0.16" stroke="#ffffff" stroke-opacity="0.32" stroke-width="1.2"/><rect x="394" y="228" width="20" height="18" rx="3" fill="#dbe3f2" fill-opacity="0.16" stroke="#ffffff" stroke-opacity="0.32" stroke-width="1.2"/><line x1="314" y1="160" x2="326" y2="160" stroke="#dbe3f2" stroke-opacity="0.9" stroke-width="2.2"/><line x1="314" y1="180" x2="326" y2="180" stroke="#dbe3f2" stroke-opacity="0.9" stroke-width="2.2"/><line x1="314" y1="200" x2="326" y2="200" stroke="#dbe3f2" stroke-opacity="0.9" stroke-width="2.2"/><line x1="314" y1="220" x2="326" y2="220" stroke="#dbe3f2" stroke-opacity="0.9" stroke-width="2.2"/><line x1="314" y1="240" x2="326" y2="240" stroke="#dbe3f2" stroke-opacity="0.9" stroke-width="2.2"/><text x="320" y="304" font-family="Inter, sans-serif" font-size="15" font-weight="800" fill="#ffffff" fill-opacity="0.85" text-anchor="middle" letter-spacing="0.18em" stroke="none">M1 ULTRA</text>
</g>
<rect width="640" height="400" fill="url(#vign5)"/>
</svg>